<?xml version="1.0" encoding="utf-8"?>
<!-- Generator: Adobe Illustrator 26.0.1, SVG Export Plug-In . SVG Version: 6.00 Build 0)  -->
<svg version="1.1" id="Vrstva_1" xmlns="http://www.w3.org/2000/svg" xmlns:xlink="http://www.w3.org/1999/xlink" x="0px" y="0px"
	 width="720px" height="94px" viewBox="0 0 720 94" style="enable-background:new 0 0 720 94;" xml:space="preserve">
<style type="text/css">
	.st0{fill:#FFFFFF;}
	.st1{clip-path:url(#SVGID_00000135668349401765264620000001859826049022512564_);fill:#6E9B12;}
	.st2{fill:#FFFFFF;}
</style>
<polyline class="st0" points="109.6,13.6 159.9,13.6 159.9,20.7 138.4,20.7 138.4,80.9 130.9,80.9 130.9,20.7 109.6,20.7 "/>
<path class="st0" d="M177.1,13.6h12.2l25,67.3h-7.7l-6.4-17.2h-34.1l-6.3,17.2h-7.7 M197.9,57l-13.4-36.3H182L168.7,57H197.9z"/>
<path class="st0" d="M245.1,12.8h8.5c16.3,0,24.3,5.3,24.3,17.4V33h-7.7v-0.8c0-10.2-5-12.4-17-12.4h-5.9c-6.7,0-11.4,0.2-15.1,3.3
	c-3.3,2.9-3.5,7.3-3.5,14.5v19.2c0,7.2,0.2,11.7,3.5,14.5c3.8,3.2,8.5,3.3,15.1,3.3h5.9c6,0,10.3-0.1,13.7-3
	c3.1-2.6,3.3-6.8,3.3-13.3v-4.2h-18.7v-6.9h26.4v11.3c0,17.3-6.3,23.1-24.3,23.1h-8.5c-18,0-24.3-5.7-24.3-23.1V35.8
	C220.8,18.5,227.1,12.8,245.1,12.8"/>
<path class="st0" d="M291.4,13.6h30.4c14.4,0,19.9,3.3,19.9,15.4v10.2c0,7-2.9,11-8.7,12c6.7,1.6,8.7,5.4,8.7,13.5v16.2h-7.8V67
	c0-9.8-2.5-12.3-11.2-12.3h-23.9v26.2h-7.4 M298.8,20.7v26.9h21.5c9.3,0,13.6-1,13.6-9.5v-7.9c0-8.6-4.1-9.5-13.6-9.5L298.8,20.7
	L298.8,20.7z"/>
<path class="st0" d="M373.8,13.6H386l25,67.3h-7.7L397,63.7h-34.1l-6.3,17.2h-7.7 M394.6,57l-13.4-36.3h-2.4L365.4,57H394.6z"/>
<path class="st0" d="M413.3,16c1.6,1.6,2.5,3.8,2.5,6.2c0,2.4-0.9,4.5-2.5,6.1c-1.7,1.7-3.9,2.6-6.2,2.6c-2.3,0-4.5-0.9-6.1-2.6
	c-1.7-1.7-2.6-3.8-2.6-6.1c0-2.3,0.9-4.5,2.6-6.2c1.6-1.6,3.7-2.5,6.1-2.5C409.4,13.4,411.6,14.3,413.3,16 M412.6,16.6
	c-1.5-1.5-3.4-2.3-5.6-2.3c-2.1,0-4,0.8-5.4,2.2c-1.5,1.5-2.3,3.5-2.3,5.5c0,2,0.8,4,2.3,5.5c1.5,1.5,3.4,2.3,5.5,2.3
	c2,0,4-0.8,5.6-2.3c1.5-1.4,2.2-3.3,2.2-5.4C414.8,20,414,18.1,412.6,16.6 M411.5,19.7c0,1.4-0.9,2.4-2.4,2.6l2.2,4.6h-1.7l-2.1-4.4
	h-2.3V27h-1.5V17h3.7C410.1,17,411.5,17.8,411.5,19.7 M405.1,18v3.6h1.9c2,0,2.9-0.4,2.9-1.8c0-1.3-0.9-1.9-2.9-1.9L405.1,18
	L405.1,18z"/>
<g>
	<g>
		<g>
			<g>
				<defs>
					<path id="SVGID_1_" d="M92.6,47.8C92.6,22.5,72.1,2,46.8,2C21.5,2,1,22.5,1,47.8s20.5,45.8,45.8,45.8
						C72.1,93.6,92.6,73.1,92.6,47.8"/>
				</defs>
				<clipPath id="SVGID_00000127752280492333042370000005824343141298628000_">
					<use xlink:href="#SVGID_1_"  style="overflow:visible;"/>
				</clipPath>
				
					<rect x="-1.8" y="-0.5" style="clip-path:url(#SVGID_00000127752280492333042370000005824343141298628000_);fill:#6E9B12;" width="102.1" height="97.1"/>
			</g>
		</g>
	</g>
</g>
<path class="st2" d="M60.3,71.2h-9.5V40.8c0,0,0-5.7-5.7-5.7H29.9v-9.5h15.2c0,0,15.2,0,15.2,15.2"/>

<!-- Separator -->
<rect x="445" y="22" width="2" height="50" fill="#FFFFFF" opacity="0.45"/>

<!-- "Control" text -->
<text x="480" y="64" font-family="-apple-system, BlinkMacSystemFont, 'Segoe UI', Roboto, sans-serif"
      font-size="56" font-weight="400" fill="#FFFFFF" letter-spacing="-1">Control</text>

</svg>
